<svg width="22" height="22" viewBox="0 0 22 22" fill="none" xmlns="http://www.w3.org/2000/svg">
<path fill-rule="evenodd" clip-rule="evenodd" d="M11 20.8003C6.28595 20.8003 3.92893 20.8003 2.46447 19.3358C1 17.8714 1 15.5143 1 10.8003C1 6.08625 1 3.72923 2.46447 2.26476C3.92893 0.800293 6.28595 0.800293 11 0.800293C15.714 0.800293 18.0711 0.800293 19.5355 2.26476C21 3.72923 21 6.08625 21 10.8003C21 15.5143 21 17.8714 19.5355 19.3358C18.0711 20.8003 15.714 20.8003 11 20.8003ZM15.0303 7.76996C15.3232 8.06286 15.3232 8.53773 15.0303 8.83062L10.0303 13.8306C9.73744 14.1235 9.26256 14.1235 8.96967 13.8306L6.96967 11.8306C6.67678 11.5377 6.67678 11.0629 6.96967 10.77C7.26256 10.4771 7.73744 10.4771 8.03033 10.77L9.5 12.2396L13.9697 7.76996C14.2626 7.47707 14.7374 7.47707 15.0303 7.76996Z" fill="#025FCA"/>
<path d="M15.0303 8.83062L15.5607 9.36095L15.0303 8.83062ZM15.0303 7.76996L15.5607 7.23963L15.5607 7.23963L15.0303 7.76996ZM10.0303 13.8306L10.5607 14.361L10.5607 14.361L10.0303 13.8306ZM8.96967 13.8306L8.43934 14.361L8.43934 14.361L8.96967 13.8306ZM6.96967 11.8306L6.43934 12.361L6.96967 11.8306ZM6.96967 10.77L6.43934 10.2396L6.96967 10.77ZM8.03033 10.77L8.56066 10.2396L8.03033 10.77ZM9.5 12.2396L8.96967 12.77L9.5 13.3003L10.0303 12.77L9.5 12.2396ZM13.9697 7.76996L13.4393 7.23963L13.9697 7.76996ZM11 20.8003V20.0503C8.62178 20.0503 6.91356 20.0487 5.61358 19.8739C4.33517 19.702 3.56445 19.3752 2.9948 18.8055L2.46447 19.3358L1.93414 19.8662C2.82895 20.761 3.96897 21.1663 5.41371 21.3605C6.83687 21.5519 8.66418 21.5503 11 21.5503V20.8003ZM1 10.8003H0.25C0.25 13.1361 0.248407 14.9634 0.439746 16.3866C0.633986 17.8313 1.03933 18.9713 1.93414 19.8662L2.46447 19.3358L2.9948 18.8055C2.42514 18.2358 2.09825 17.4651 1.92637 16.1867C1.75159 14.8867 1.75 13.1785 1.75 10.8003H1ZM21 10.8003H20.25C20.25 13.1785 20.2484 14.8867 20.0736 16.1867C19.9018 17.4651 19.5749 18.2358 19.0052 18.8055L19.5355 19.3358L20.0659 19.8662C20.9607 18.9713 21.366 17.8313 21.5603 16.3866C21.7516 14.9634 21.75 13.1361 21.75 10.8003H21ZM11 20.8003V21.5503C13.3358 21.5503 15.1631 21.5519 16.5863 21.3605C18.031 21.1663 19.1711 20.761 20.0659 19.8662L19.5355 19.3358L19.0052 18.8055C18.4355 19.3752 17.6648 19.702 16.3864 19.8739C15.0864 20.0487 13.3782 20.0503 11 20.0503V20.8003ZM11 0.800293V1.55029C13.3782 1.55029 15.0864 1.55189 16.3864 1.72666C17.6648 1.89854 18.4355 2.22543 19.0052 2.79509L19.5355 2.26476L20.0659 1.73443C19.1711 0.839619 18.031 0.434279 16.5863 0.240039C15.1631 0.0487002 13.3358 0.050293 11 0.050293V0.800293ZM21 10.8003H21.75C21.75 8.46447 21.7516 6.63716 21.5603 5.214C21.366 3.76926 20.9607 2.62924 20.0659 1.73443L19.5355 2.26476L19.0052 2.79509C19.5749 3.36475 19.9018 4.13547 20.0736 5.41387C20.2484 6.71385 20.25 8.42207 20.25 10.8003H21ZM11 0.800293V0.050293C8.66418 0.050293 6.83687 0.0487002 5.41371 0.240039C3.96897 0.434279 2.82895 0.839619 1.93414 1.73443L2.46447 2.26476L2.9948 2.79509C3.56445 2.22543 4.33517 1.89854 5.61358 1.72666C6.91356 1.55189 8.62178 1.55029 11 1.55029V0.800293ZM1 10.8003H1.75C1.75 8.42207 1.75159 6.71385 1.92637 5.41387C2.09825 4.13547 2.42514 3.36475 2.9948 2.79509L2.46447 2.26476L1.93414 1.73443C1.03933 2.62924 0.633986 3.76926 0.439746 5.214C0.248407 6.63716 0.25 8.46447 0.25 10.8003H1ZM15.0303 8.83062L15.5607 9.36095C16.1464 8.77517 16.1464 7.82542 15.5607 7.23963L15.0303 7.76996L14.5 8.30029V8.30029L15.0303 8.83062ZM10.0303 13.8306L10.5607 14.361L15.5607 9.36095L15.0303 8.83062L14.5 8.30029L9.5 13.3003L10.0303 13.8306ZM8.96967 13.8306L8.43934 14.361C9.02513 14.9467 9.97487 14.9467 10.5607 14.361L10.0303 13.8306L9.5 13.3003H9.5L8.96967 13.8306ZM6.96967 11.8306L6.43934 12.361L8.43934 14.361L8.96967 13.8306L9.5 13.3003L7.5 11.3003L6.96967 11.8306ZM6.96967 10.77L6.43934 10.2396C5.85355 10.8254 5.85355 11.7752 6.43934 12.361L6.96967 11.8306L7.5 11.3003V11.3003L6.96967 10.77ZM8.03033 10.77L8.56066 10.2396C7.97487 9.65385 7.02513 9.65385 6.43934 10.2396L6.96967 10.77L7.5 11.3003L8.03033 10.77ZM9.5 12.2396L10.0303 11.7093L8.56066 10.2396L8.03033 10.77L7.5 11.3003L8.96967 12.77L9.5 12.2396ZM13.9697 7.76996L13.4393 7.23963L8.96967 11.7093L9.5 12.2396L10.0303 12.77L14.5 8.30029L13.9697 7.76996ZM15.0303 7.76996L15.5607 7.23963C14.9749 6.65385 14.0251 6.65385 13.4393 7.23963L13.9697 7.76996L14.5 8.30029H14.5L15.0303 7.76996Z" fill="white"/>
</svg>
